# xmcd
#
# Track frame offsets: 
#        150
#        19348
#        36079
#        58846
#        75983
#        95771
#        116825
#        130607
#        144008
#        161014
#        181063
#        190624
#        204782
#
# Disc length: 2750 seconds
#
# Revision: 0
# Processed by: cddbd v1.5.2PL0 Copyright (c) Steve Scherf et al.
# Submitted via: ExactAudioCopy v0.95b3
#
DISCID=a00abc0d
DTITLE=Memphis In The Meantime - Take Me Home
DYEAR=2006
DGENRE=Brit Blues
TTITLE0=Take Me Home
TTITLE1=Web Top Checker (w Jimmy Griswold)
TTITLE2=Blues Thing (w Jimmy Griswold)
TTITLE3=Why's It Always Me
TTITLE4=Knock Me Down With A Feather
TTITLE5=Something To Hold On To
TTITLE6=Oldsmobile
TTITLE7=Lightning Never Strikes
TTITLE8=Stop That Rappin'
TTITLE9=Bloodshot Eyes
TTITLE10=Perfect Day For The Blues
TTITLE11=Second Hand Guitar Dealer
TTITLE12=Fuck Knows
EXTD=BMRCD20057\n\nwww.bluesmatters.com\n\n\n\nJWB October 2006
EXTT0=
EXTT1=
EXTT2=
EXTT3=
EXTT4=
EXTT5=
EXTT6=
EXTT7=
EXTT8=
EXTT9=
EXTT10=
EXTT11=
EXTT12=
PLAYORDER=
